<svg xmlns="http://www.w3.org/2000/svg" xmlns:xlink="http://www.w3.org/1999/xlink" width="2000" zoomAndPan="magnify" viewBox="0 0 1500 1499.999933" height="2000" preserveAspectRatio="xMidYMid meet" version="1.0"><defs><clipPath id="f62258e8e5"><path d="M 0.160156 217 L 406 217 L 406 637 L 0.160156 637 Z M 0.160156 217 " clip-rule="nonzero"/></clipPath><clipPath id="ca6d94c92f"><path d="M 0.386719 306.1875 L 94.402344 217.472656 L 405.664062 547.316406 L 311.652344 636.03125 Z M 0.386719 306.1875 " clip-rule="nonzero"/></clipPath><clipPath id="e4e5ddf4c5"><path d="M 0.160156 0.359375 L 405.761719 0.359375 L 405.761719 419 L 0.160156 419 Z M 0.160156 0.359375 " clip-rule="nonzero"/></clipPath><clipPath id="0db3839cc5"><path d="M 0.386719 89.1875 L 94.402344 0.472656 L 405.664062 330.316406 L 311.652344 419.03125 Z M 0.386719 89.1875 " clip-rule="nonzero"/></clipPath><clipPath id="8cf5f0e30d"><rect x="0" width="406" y="0" height="420"/></clipPath><clipPath id="cc4e8aa4d5"><path d="M 307 0.160156 L 859 0.160156 L 859 552 L 307 552 Z M 307 0.160156 " clip-rule="nonzero"/></clipPath><clipPath id="09a2fd6236"><path d="M 765.230469 0.359375 L 858.464844 93.597656 L 400.6875 551.375 L 307.453125 458.136719 Z M 765.230469 0.359375 " clip-rule="nonzero"/></clipPath><clipPath id="9c8fda9588"><path d="M 0.359375 0.160156 L 551.640625 0.160156 L 551.640625 551.441406 L 0.359375 551.441406 Z M 0.359375 0.160156 " clip-rule="nonzero"/></clipPath><clipPath id="189d1a0096"><path d="M 458.230469 0.359375 L 551.464844 93.597656 L 93.6875 551.375 L 0.453125 458.136719 Z M 458.230469 0.359375 " clip-rule="nonzero"/></clipPath><clipPath id="a3a7f8b048"><rect x="0" width="552" y="0" height="552"/></clipPath><clipPath id="d53920b76d"><path d="M 291 328 L 843 328 L 843 880 L 291 880 Z M 291 328 " clip-rule="nonzero"/></clipPath><clipPath id="a906534b37"><path d="M 749.5 328.121094 L 842.734375 421.359375 L 384.960938 879.136719 L 291.722656 785.898438 Z M 749.5 328.121094 " clip-rule="nonzero"/></clipPath><clipPath id="04c8179b40"><path d="M 0.519531 0 L 551.800781 0 L 551.800781 551.28125 L 0.519531 551.28125 Z M 0.519531 0 " clip-rule="nonzero"/></clipPath><clipPath id="6feedeb3c9"><path d="M 458.5 0.121094 L 551.734375 93.359375 L 93.960938 551.136719 L 0.722656 457.898438 Z M 458.5 0.121094 " clip-rule="nonzero"/></clipPath><clipPath id="c2adcb5207"><rect x="0" width="552" y="0" height="552"/></clipPath><clipPath id="5549d2860f"><path d="M 127 705 L 386 705 L 386 968 L 127 968 Z M 127 705 " clip-rule="nonzero"/></clipPath><clipPath id="905cddf11b"><path d="M 127.945312 794.191406 L 221.960938 705.472656 L 385.640625 878.925781 L 291.628906 967.640625 Z M 127.945312 794.191406 " clip-rule="nonzero"/></clipPath><clipPath id="36cc47ec0f"><path d="M 0.839844 0.28125 L 258.839844 0.28125 L 258.839844 262.839844 L 0.839844 262.839844 Z M 0.839844 0.28125 " clip-rule="nonzero"/></clipPath><clipPath id="c34d762a7c"><path d="M 0.945312 89.191406 L 94.960938 0.472656 L 258.640625 173.925781 L 164.628906 262.640625 Z M 0.945312 89.191406 " clip-rule="nonzero"/></clipPath><clipPath id="59971f70d6"><rect x="0" width="259" y="0" height="263"/></clipPath><clipPath id="9e52676ea2"><path d="M 56 550 L 308 550 L 308 796 L 56 796 Z M 56 550 " clip-rule="nonzero"/></clipPath><clipPath id="d1f992a8fc"><path d="M 234.863281 550.253906 L 307.449219 627.222656 L 129.457031 795.089844 L 56.867188 718.121094 Z M 234.863281 550.253906 " clip-rule="nonzero"/></clipPath><clipPath id="2179c3b943"><path d="M 0.800781 0.238281 L 251.601562 0.238281 L 251.601562 245.28125 L 0.800781 245.28125 Z M 0.800781 0.238281 " clip-rule="nonzero"/></clipPath><clipPath id="0e5cced3ea"><path d="M 178.863281 0.253906 L 251.449219 77.222656 L 73.457031 245.089844 L 0.867188 168.121094 Z M 178.863281 0.253906 " clip-rule="nonzero"/></clipPath><clipPath id="bec793404f"><rect x="0" width="252" y="0" height="246"/></clipPath><clipPath id="51e4c3a603"><path d="M 676 2 L 928 2 L 928 254 L 676 254 Z M 676 2 " clip-rule="nonzero"/></clipPath><clipPath id="6405a20f7b"><path d="M 676.378906 94.289062 L 767.78125 2.886719 L 927.011719 162.113281 L 835.605469 253.515625 Z M 676.378906 94.289062 " clip-rule="nonzero"/></clipPath><clipPath id="b7105b0842"><path d="M 0.238281 0.800781 L 251.039062 0.800781 L 251.039062 251.601562 L 0.238281 251.601562 Z M 0.238281 0.800781 " clip-rule="nonzero"/></clipPath><clipPath id="bfb113974a"><path d="M 0.378906 92.289062 L 91.78125 0.886719 L 251.011719 160.113281 L 159.605469 251.515625 Z M 0.378906 92.289062 " clip-rule="nonzero"/></clipPath><clipPath id="07924aad3d"><rect x="0" width="252" y="0" height="252"/></clipPath><clipPath id="06099a2049"><path d="M 735 155 L 1008 155 L 1008 431 L 735 431 Z M 735 155 " clip-rule="nonzero"/></clipPath><clipPath id="5c1dc3f326"><path d="M 920.421875 155.417969 L 1007.601562 239.511719 L 823.132812 430.75 L 735.953125 346.65625 Z M 920.421875 155.417969 " clip-rule="nonzero"/></clipPath><clipPath id="993a8e91ae"><path d="M 0.761719 0.199219 L 272.679688 0.199219 L 272.679688 275.960938 L 0.761719 275.960938 Z M 0.761719 0.199219 " clip-rule="nonzero"/></clipPath><clipPath id="cb186f1ce6"><path d="M 185.421875 0.417969 L 272.601562 84.511719 L 88.132812 275.75 L 0.953125 191.65625 Z M 185.421875 0.417969 " clip-rule="nonzero"/></clipPath><clipPath id="c07118ad05"><rect x="0" width="273" y="0" height="276"/></clipPath><clipPath id="7538378a09"><path d="M 653 326 L 1075.839844 326 L 1075.839844 750 L 653 750 Z M 653 326 " clip-rule="nonzero"/></clipPath><clipPath id="5c87853b21"><path d="M 1075.601562 650.707031 L 977.296875 749.011719 L 653.046875 424.761719 L 751.355469 326.457031 Z M 1075.601562 650.707031 " clip-rule="nonzero"/></clipPath><clipPath id="75e1d43916"><path d="M 0 0.320312 L 422.839844 0.320312 L 422.839844 423.199219 L 0 423.199219 Z M 0 0.320312 " clip-rule="nonzero"/></clipPath><clipPath id="aab81ead2b"><path d="M 422.601562 324.707031 L 324.296875 423.011719 L 0.046875 98.761719 L 98.355469 0.457031 Z M 422.601562 324.707031 " clip-rule="nonzero"/></clipPath><clipPath id="2ea567a9ef"><rect x="0" width="423" y="0" height="424"/></clipPath><clipPath id="0e01173c43"><path d="M 738 560 L 1075.839844 560 L 1075.839844 898 L 738 898 Z M 738 560 " clip-rule="nonzero"/></clipPath><clipPath id="7d5f7a244e"><path d="M 827.402344 897.882812 L 738.019531 808.503906 L 986.230469 560.292969 L 1075.609375 649.671875 Z M 827.402344 897.882812 " clip-rule="nonzero"/></clipPath><clipPath id="381578db5c"><path d="M 0 0.078125 L 337.839844 0.078125 L 337.839844 338 L 0 338 Z M 0 0.078125 " clip-rule="nonzero"/></clipPath><clipPath id="85932217dd"><path d="M 89.402344 337.882812 L 0.0195312 248.503906 L 248.230469 0.292969 L 337.609375 89.671875 Z M 89.402344 337.882812 " clip-rule="nonzero"/></clipPath><clipPath id="948d4a6769"><rect x="0" width="338" y="0" height="338"/></clipPath><clipPath id="818da9ca49"><path d="M 562.515625 771.476562 L 829.171875 771.476562 L 829.171875 897.878906 L 562.515625 897.878906 Z M 562.515625 771.476562 " clip-rule="nonzero"/></clipPath><clipPath id="528d736668"><path d="M 0.515625 0.476562 L 267.171875 0.476562 L 267.171875 126.878906 L 0.515625 126.878906 Z M 0.515625 0.476562 " clip-rule="nonzero"/></clipPath><clipPath id="077f47f64a"><rect x="0" width="268" y="0" height="127"/></clipPath><clipPath id="3dc67d6615"><path d="M 233.554688 74.160156 L 500.207031 74.160156 L 500.207031 200.5625 L 233.554688 200.5625 Z M 233.554688 74.160156 " clip-rule="nonzero"/></clipPath><clipPath id="62526ff20d"><path d="M 0.554688 0.160156 L 267.207031 0.160156 L 267.207031 126.5625 L 0.554688 126.5625 Z M 0.554688 0.160156 " clip-rule="nonzero"/></clipPath><clipPath id="64d15d24f6"><rect x="0" width="268" y="0" height="127"/></clipPath><clipPath id="686b819f3d"><path d="M 0.160156 74 L 324 74 L 324 398 L 0.160156 398 Z M 0.160156 74 " clip-rule="nonzero"/></clipPath><clipPath id="6349b053bf"><path d="M 89.761719 397.523438 L 0.378906 308.144531 L 234.363281 74.160156 L 323.742188 163.539062 Z M 89.761719 397.523438 " clip-rule="nonzero"/></clipPath><clipPath id="a1c194010c"><path d="M 0.160156 0.078125 L 323.921875 0.078125 L 323.921875 323.601562 L 0.160156 323.601562 Z M 0.160156 0.078125 " clip-rule="nonzero"/></clipPath><clipPath id="959cfa5a9f"><path d="M 89.761719 323.523438 L 0.378906 234.144531 L 234.363281 0.160156 L 323.742188 89.539062 Z M 89.761719 323.523438 " clip-rule="nonzero"/></clipPath><clipPath id="d2e0833af5"><rect x="0" width="324" y="0" height="324"/></clipPath><clipPath id="56a2b9e26b"><path d="M 492 71 L 619 71 L 619 201 L 492 201 Z M 492 71 " clip-rule="nonzero"/></clipPath><clipPath id="514c7476a3"><path d="M 432.851562 138.546875 L 551.320312 9.761719 L 618.742188 71.78125 L 500.273438 200.566406 Z M 432.851562 138.546875 " clip-rule="nonzero"/></clipPath><clipPath id="1d1e0eebd3"><path d="M 492.023438 74.222656 L 618.617188 71.917969 L 500.273438 200.566406 Z M 492.023438 74.222656 " clip-rule="nonzero"/></clipPath><clipPath id="271961da8d"><path d="M 0 0.679688 L 126.640625 0.679688 L 126.640625 129.800781 L 0 129.800781 Z M 0 0.679688 " clip-rule="nonzero"/></clipPath><clipPath id="d5c86332dc"><path d="M -59.148438 67.546875 L 59.320312 -61.238281 L 126.742188 0.78125 L 8.273438 129.566406 Z M -59.148438 67.546875 " clip-rule="nonzero"/></clipPath><clipPath id="0135a33328"><path d="M 0.0234375 3.222656 L 126.617188 0.917969 L 8.273438 129.566406 Z M 0.0234375 3.222656 " clip-rule="nonzero"/></clipPath><clipPath id="edca63d86f"><rect x="0" width="127" y="0" height="130"/></clipPath><clipPath id="b255ebdfb6"><path d="M 439 771 L 566 771 L 566 899 L 439 899 Z M 439 771 " clip-rule="nonzero"/></clipPath><clipPath id="0799660651"><path d="M 627.5625 836.253906 L 503.828125 959.988281 L 439.050781 895.210938 L 562.785156 771.476562 Z M 627.5625 836.253906 " clip-rule="nonzero"/></clipPath><clipPath id="e662350bdd"><path d="M 565.761719 898.054688 L 439.179688 895.078125 L 562.785156 771.476562 Z M 565.761719 898.054688 " clip-rule="nonzero"/></clipPath><clipPath id="3389155549"><path d="M 0.121094 0.28125 L 126.839844 0.28125 L 126.839844 127.238281 L 0.121094 127.238281 Z M 0.121094 0.28125 " clip-rule="nonzero"/></clipPath><clipPath id="4eb24104ab"><path d="M 188.5625 65.253906 L 64.828125 188.988281 L 0.0507812 124.210938 L 123.785156 0.476562 Z M 188.5625 65.253906 " clip-rule="nonzero"/></clipPath><clipPath id="982fc67be0"><path d="M 126.761719 127.054688 L 0.179688 124.078125 L 123.785156 0.476562 Z M 126.761719 127.054688 " clip-rule="nonzero"/></clipPath><clipPath id="b68c50e2b5"><rect x="0" width="127" y="0" height="128"/></clipPath><clipPath id="4f3a140a2b"><path d="M 168 488 L 387 488 L 387 706 L 168 706 Z M 168 488 " clip-rule="nonzero"/></clipPath><clipPath id="724c536f06"><path d="M 286.804688 382.921875 L 486.167969 594.902344 L 368.195312 705.855469 L 168.832031 493.871094 Z M 286.804688 382.921875 " clip-rule="nonzero"/></clipPath><clipPath id="056339f5b1"><path d="M 386.308594 488.722656 L 367.839844 705.476562 L 168.832031 493.871094 Z M 386.308594 488.722656 " clip-rule="nonzero"/></clipPath><clipPath id="99ff0a1716"><path d="M 0.640625 0.558594 L 218.320312 0.558594 L 218.320312 217.519531 L 0.640625 217.519531 Z M 0.640625 0.558594 " clip-rule="nonzero"/></clipPath><clipPath id="235ef8f455"><path d="M 118.804688 -105.078125 L 318.167969 106.902344 L 200.195312 217.855469 L 0.832031 5.871094 Z M 118.804688 -105.078125 " clip-rule="nonzero"/></clipPath><clipPath id="f10a17e996"><path d="M 218.308594 0.722656 L 199.839844 217.476562 L 0.832031 5.871094 Z M 218.308594 0.722656 " clip-rule="nonzero"/></clipPath><clipPath id="2073cf1e95"><rect x="0" width="219" y="0" height="218"/></clipPath><clipPath id="fab13c8eff"><path d="M 197 521 L 349 521 L 349 672 L 197 672 Z M 197 521 " clip-rule="nonzero"/></clipPath><clipPath id="6deb99f9f7"><path d="M 279.5 448.324219 L 417.515625 595.074219 L 335.847656 671.882812 L 197.828125 525.132812 Z M 279.5 448.324219 " clip-rule="nonzero"/></clipPath><clipPath id="052203cdde"><path d="M 348.386719 521.566406 L 335.597656 671.621094 L 197.828125 525.132812 Z M 348.386719 521.566406 " clip-rule="nonzero"/></clipPath><clipPath id="39d946d5d4"><path d="M 0.679688 0.441406 L 151.398438 0.441406 L 151.398438 150.679688 L 0.679688 150.679688 Z M 0.679688 0.441406 " clip-rule="nonzero"/></clipPath><clipPath id="0e118d3333"><path d="M 82.5 -72.675781 L 220.515625 74.074219 L 138.847656 150.882812 L 0.828125 4.132812 Z M 82.5 -72.675781 " clip-rule="nonzero"/></clipPath><clipPath id="7d4d394e8a"><path d="M 151.386719 0.566406 L 138.597656 150.621094 L 0.828125 4.132812 Z M 151.386719 0.566406 " clip-rule="nonzero"/></clipPath><clipPath id="546883371b"><rect x="0" width="152" y="0" height="151"/></clipPath><clipPath id="205e3e20c0"><path d="M 681 260 L 899 260 L 899 478 L 681 478 Z M 681 260 " clip-rule="nonzero"/></clipPath><clipPath id="2d4dcfbcce"><path d="M 784.246094 580.058594 L 577.476562 375.289062 L 691.433594 260.21875 L 898.203125 464.984375 Z M 784.246094 580.058594 " clip-rule="nonzero"/></clipPath><clipPath id="dbc53d7afa"><path d="M 681.046875 477.855469 L 691.804688 260.585938 L 898.203125 464.984375 Z M 681.046875 477.855469 " clip-rule="nonzero"/></clipPath><clipPath id="eecaadffb9"><path d="M 0.0390625 0.558594 L 217.238281 0.558594 L 217.238281 218 L 0.0390625 218 Z M 0.0390625 0.558594 " clip-rule="nonzero"/></clipPath><clipPath id="966eea26ee"><path d="M 103.246094 320.058594 L -103.523438 115.289062 L 10.433594 0.21875 L 217.203125 204.984375 Z M 103.246094 320.058594 " clip-rule="nonzero"/></clipPath><clipPath id="b1dc8e2687"><path d="M 0.046875 217.855469 L 10.804688 0.585938 L 217.203125 204.984375 Z M 0.046875 217.855469 " clip-rule="nonzero"/></clipPath><clipPath id="e82555eb36"><rect x="0" width="218" y="0" height="218"/></clipPath><clipPath id="ddb46309ec"><path d="M 717 293 L 869 293 L 869 444 L 717 444 Z M 717 293 " clip-rule="nonzero"/></clipPath><clipPath id="8581faa5e6"><path d="M 789.214844 514.433594 L 646.074219 372.675781 L 724.964844 293.015625 L 868.105469 434.769531 Z M 789.214844 514.433594 " clip-rule="nonzero"/></clipPath><clipPath id="3625744a41"><path d="M 717.773438 443.679688 L 725.222656 293.269531 L 868.105469 434.769531 Z M 717.773438 443.679688 " clip-rule="nonzero"/></clipPath><clipPath id="b90ce4f368"><path d="M 0.761719 0.199219 L 151.238281 0.199219 L 151.238281 150.917969 L 0.761719 150.917969 Z M 0.761719 0.199219 " clip-rule="nonzero"/></clipPath><clipPath id="409b374ada"><path d="M 72.214844 221.433594 L -70.925781 79.675781 L 7.964844 0.015625 L 151.105469 141.769531 Z M 72.214844 221.433594 " clip-rule="nonzero"/></clipPath><clipPath id="4956fafdba"><path d="M 0.773438 150.679688 L 8.222656 0.269531 L 151.105469 141.769531 Z M 0.773438 150.679688 " clip-rule="nonzero"/></clipPath><clipPath id="a65f3b667a"><rect x="0" width="152" y="0" height="151"/></clipPath><clipPath id="3bfd4f3dcc"><path d="M 613.632812 506.578125 L 902.144531 506.578125 L 902.144531 795.089844 L 613.632812 795.089844 Z M 613.632812 506.578125 " clip-rule="nonzero"/></clipPath><clipPath id="08ad97a2fc"><path d="M 757.886719 506.578125 C 678.21875 506.578125 613.632812 571.164062 613.632812 650.832031 C 613.632812 730.503906 678.21875 795.089844 757.886719 795.089844 C 837.558594 795.089844 902.144531 730.503906 902.144531 650.832031 C 902.144531 571.164062 837.558594 506.578125 757.886719 506.578125 Z M 757.886719 506.578125 " clip-rule="nonzero"/></clipPath><clipPath id="d7d7c6ac62"><path d="M 0.632812 0.578125 L 289.144531 0.578125 L 289.144531 289.089844 L 0.632812 289.089844 Z M 0.632812 0.578125 " clip-rule="nonzero"/></clipPath><clipPath id="88a5027653"><path d="M 144.886719 0.578125 C 65.21875 0.578125 0.632812 65.164062 0.632812 144.832031 C 0.632812 224.503906 65.21875 289.089844 144.886719 289.089844 C 224.558594 289.089844 289.144531 224.503906 289.144531 144.832031 C 289.144531 65.164062 224.558594 0.578125 144.886719 0.578125 Z M 144.886719 0.578125 " clip-rule="nonzero"/></clipPath><clipPath id="0d31347352"><rect x="0" width="290" y="0" height="290"/></clipPath><clipPath id="19f2ddb177"><path d="M 162.066406 170.441406 L 450.578125 170.441406 L 450.578125 458.949219 L 162.066406 458.949219 Z M 162.066406 170.441406 " clip-rule="nonzero"/></clipPath><clipPath id="d3aff2b6c0"><path d="M 306.320312 170.441406 C 226.652344 170.441406 162.066406 235.023438 162.066406 314.695312 C 162.066406 394.367188 226.652344 458.949219 306.320312 458.949219 C 385.992188 458.949219 450.578125 394.367188 450.578125 314.695312 C 450.578125 235.023438 385.992188 170.441406 306.320312 170.441406 Z M 306.320312 170.441406 " clip-rule="nonzero"/></clipPath><clipPath id="969992d2c5"><path d="M 0.0664062 0.441406 L 288.578125 0.441406 L 288.578125 288.949219 L 0.0664062 288.949219 Z M 0.0664062 0.441406 " clip-rule="nonzero"/></clipPath><clipPath id="495f65d9e5"><path d="M 144.320312 0.441406 C 64.652344 0.441406 0.0664062 65.023438 0.0664062 144.695312 C 0.0664062 224.367188 64.652344 288.949219 144.320312 288.949219 C 223.992188 288.949219 288.578125 224.367188 288.578125 144.695312 C 288.578125 65.023438 223.992188 0.441406 144.320312 0.441406 Z M 144.320312 0.441406 " clip-rule="nonzero"/></clipPath><clipPath id="2d5e38849c"><rect x="0" width="289" y="0" height="289"/></clipPath><clipPath id="d853858cba"><path d="M 202 209 L 451 209 L 451 419 L 202 419 Z M 202 209 " clip-rule="nonzero"/></clipPath><clipPath id="e38e924b29"><path d="M 249.523438 452.28125 L 168.691406 257.042969 L 412.535156 156.089844 L 493.367188 351.328125 Z M 249.523438 452.28125 " clip-rule="nonzero"/></clipPath><clipPath id="81e3e2f003"><path d="M 249.523438 452.28125 L 168.691406 257.042969 L 412.535156 156.089844 L 493.367188 351.328125 Z M 249.523438 452.28125 " clip-rule="nonzero"/></clipPath><clipPath id="fae629689e"><path d="M 249.523438 452.28125 L 168.691406 257.042969 L 412.535156 156.089844 L 493.367188 351.328125 Z M 249.523438 452.28125 " clip-rule="nonzero"/></clipPath><clipPath id="d80c76b138"><path d="M 201 208 L 453 208 L 453 420 L 201 420 Z M 201 208 " clip-rule="nonzero"/></clipPath><clipPath id="e319c1dd5b"><path d="M 249.523438 452.28125 L 168.691406 257.042969 L 412.535156 156.089844 L 493.367188 351.328125 Z M 249.523438 452.28125 " clip-rule="nonzero"/></clipPath><clipPath id="94e45d7826"><path d="M 249.523438 452.28125 L 168.691406 257.042969 L 412.535156 156.089844 L 493.367188 351.328125 Z M 249.523438 452.28125 " clip-rule="nonzero"/></clipPath><clipPath id="82078f88d3"><path d="M 249.523438 452.28125 L 168.691406 257.042969 L 412.535156 156.089844 L 493.367188 351.328125 Z M 249.523438 452.28125 " clip-rule="nonzero"/></clipPath><clipPath id="73889473df"><path d="M 616 548 L 862 548 L 862 758 L 616 758 Z M 616 548 " clip-rule="nonzero"/></clipPath><clipPath id="2c6004ebd5"><path d="M 809.132812 512.714844 L 897.644531 704.59375 L 657.996094 815.140625 L 569.484375 623.261719 Z M 809.132812 512.714844 " clip-rule="nonzero"/></clipPath><clipPath id="3828b2cf2e"><path d="M 809.132812 512.714844 L 897.644531 704.59375 L 657.996094 815.140625 L 569.484375 623.261719 Z M 809.132812 512.714844 " clip-rule="nonzero"/></clipPath><clipPath id="6c0b6aed26"><path d="M 809.132812 512.714844 L 897.644531 704.59375 L 657.996094 815.140625 L 569.484375 623.261719 Z M 809.132812 512.714844 " clip-rule="nonzero"/></clipPath><clipPath id="43eff46b42"><path d="M 614 547 L 863 547 L 863 759 L 614 759 Z M 614 547 " clip-rule="nonzero"/></clipPath><clipPath id="37dacb69dd"><path d="M 809.132812 512.714844 L 897.644531 704.59375 L 657.996094 815.140625 L 569.484375 623.261719 Z M 809.132812 512.714844 " clip-rule="nonzero"/></clipPath><clipPath id="58b0bec287"><path d="M 809.132812 512.714844 L 897.644531 704.59375 L 657.996094 815.140625 L 569.484375 623.261719 Z M 809.132812 512.714844 " clip-rule="nonzero"/></clipPath><clipPath id="9d1a46fcfc"><path d="M 809.132812 512.714844 L 897.644531 704.59375 L 657.996094 815.140625 L 569.484375 623.261719 Z M 809.132812 512.714844 " clip-rule="nonzero"/></clipPath><clipPath id="e4e3dae763"><rect x="0" width="1076" y="0" height="969"/></clipPath></defs><rect x="-150" width="1800" fill="#ffffff" y="-149.999993" height="1799.99992" fill-opacity="1"/><rect x="-150" width="1800" fill="#000000" y="-149.999993" height="1799.99992" fill-opacity="1"/><g transform="matrix(1, 0, 0, 1, 212, 266)"><g clip-path="url(#e4e3dae763)"><g clip-path="url(#f62258e8e5)"><g clip-path="url(#ca6d94c92f)"><g transform="matrix(1, 0, 0, 1, 0, 217)"><g clip-path="url(#8cf5f0e30d)"><g clip-path="url(#e4e5ddf4c5)"><g clip-path="url(#0db3839cc5)"><path fill="#ffffff" d="M 0.386719 89.1875 L 94.402344 0.472656 L 405.601562 330.25 L 311.589844 418.96875 Z M 0.386719 89.1875 " fill-opacity="1" fill-rule="nonzero"/></g></g></g></g></g></g><g clip-path="url(#cc4e8aa4d5)"><g clip-path="url(#09a2fd6236)"><g transform="matrix(1, 0, 0, 1, 307, 0.000000000000113687)"><g clip-path="url(#a3a7f8b048)"><g clip-path="url(#9c8fda9588)"><g clip-path="url(#189d1a0096)"><path fill="#ffffff" d="M 458.230469 0.359375 L 551.464844 93.597656 L 93.65625 551.40625 L 0.417969 458.171875 Z M 458.230469 0.359375 " fill-opacity="1" fill-rule="nonzero"/></g></g></g></g></g></g><g clip-path="url(#d53920b76d)"><g clip-path="url(#a906534b37)"><g transform="matrix(1, 0, 0, 1, 291, 328)"><g clip-path="url(#c2adcb5207)"><g clip-path="url(#04c8179b40)"><g clip-path="url(#6feedeb3c9)"><path fill="#ffffff" d="M 458.5 0.121094 L 551.734375 93.359375 L 93.925781 551.167969 L 0.6875 457.929688 Z M 458.5 0.121094 " fill-opacity="1" fill-rule="nonzero"/></g></g></g></g></g></g><g clip-path="url(#5549d2860f)"><g clip-path="url(#905cddf11b)"><g transform="matrix(1, 0, 0, 1, 127, 705)"><g clip-path="url(#59971f70d6)"><g clip-path="url(#36cc47ec0f)"><g clip-path="url(#c34d762a7c)"><path fill="#ffffff" d="M 0.945312 89.191406 L 94.960938 0.472656 L 258.53125 173.808594 L 164.519531 262.527344 Z M 0.945312 89.191406 " fill-opacity="1" fill-rule="nonzero"/></g></g></g></g></g></g><g clip-path="url(#9e52676ea2)"><g clip-path="url(#d1f992a8fc)"><g transform="matrix(1, 0, 0, 1, 56, 550)"><g clip-path="url(#bec793404f)"><g clip-path="url(#2179c3b943)"><g clip-path="url(#0e5cced3ea)"><path fill="#ffffff" d="M 178.863281 0.253906 L 251.449219 77.222656 L 73.464844 245.082031 L 0.875 168.117188 Z M 178.863281 0.253906 " fill-opacity="1" fill-rule="nonzero"/></g></g></g></g></g></g><g clip-path="url(#51e4c3a603)"><g clip-path="url(#6405a20f7b)"><g transform="matrix(1, 0, 0, 1, 676, 2)"><g clip-path="url(#07924aad3d)"><g clip-path="url(#b7105b0842)"><g clip-path="url(#bfb113974a)"><path fill="#ffffff" d="M 0.378906 92.289062 L 91.78125 0.886719 L 251.023438 160.128906 L 159.621094 251.53125 Z M 0.378906 92.289062 " fill-opacity="1" fill-rule="nonzero"/></g></g></g></g></g></g><g clip-path="url(#06099a2049)"><g clip-path="url(#5c1dc3f326)"><g transform="matrix(1, 0, 0, 1, 735, 155)"><g clip-path="url(#c07118ad05)"><g clip-path="url(#993a8e91ae)"><g clip-path="url(#cb186f1ce6)"><path fill="#ffffff" d="M 185.421875 0.417969 L 272.601562 84.511719 L 87.988281 275.898438 L 0.808594 191.804688 Z M 185.421875 0.417969 " fill-opacity="1" fill-rule="nonzero"/></g></g></g></g></g></g><g clip-path="url(#7538378a09)"><g clip-path="url(#5c87853b21)"><g transform="matrix(1, 0, 0, 1, 653, 326)"><g clip-path="url(#2ea567a9ef)"><g clip-path="url(#75e1d43916)"><g clip-path="url(#aab81ead2b)"><path fill="#ffffff" d="M 422.601562 324.707031 L 324.296875 423.011719 L 0.195312 98.910156 L 98.503906 0.605469 Z M 422.601562 324.707031 " fill-opacity="1" fill-rule="nonzero"/></g></g></g></g></g></g><g clip-path="url(#0e01173c43)"><g clip-path="url(#7d5f7a244e)"><g transform="matrix(1, 0, 0, 1, 738, 560)"><g clip-path="url(#948d4a6769)"><g clip-path="url(#381578db5c)"><g clip-path="url(#85932217dd)"><path fill="#ffffff" d="M 89.402344 337.882812 L 0.0195312 248.503906 L 248.257812 0.265625 L 337.640625 89.644531 Z M 89.402344 337.882812 " fill-opacity="1" fill-rule="nonzero"/></g></g></g></g></g></g><g clip-path="url(#818da9ca49)"><g transform="matrix(1, 0, 0, 1, 562, 771)"><g clip-path="url(#077f47f64a)"><g clip-path="url(#528d736668)"><path fill="#ffffff" d="M 0.515625 126.878906 L 0.515625 0.476562 L 267.148438 0.476562 L 267.148438 126.878906 Z M 0.515625 126.878906 " fill-opacity="1" fill-rule="nonzero"/></g></g></g></g><g clip-path="url(#3dc67d6615)"><g transform="matrix(1, 0, 0, 1, 233, 74)"><g clip-path="url(#64d15d24f6)"><g clip-path="url(#62526ff20d)"><path fill="#ffffff" d="M 0.554688 126.5625 L 0.554688 0.160156 L 267.183594 0.160156 L 267.183594 126.5625 Z M 0.554688 126.5625 " fill-opacity="1" fill-rule="nonzero"/></g></g></g></g><g clip-path="url(#686b819f3d)"><g clip-path="url(#6349b053bf)"><g transform="matrix(1, 0, 0, 1, 0, 74)"><g clip-path="url(#d2e0833af5)"><g clip-path="url(#a1c194010c)"><g clip-path="url(#959cfa5a9f)"><path fill="#ffffff" d="M 89.761719 323.523438 L 0.378906 234.144531 L 234.304688 0.21875 L 323.683594 89.597656 Z M 89.761719 323.523438 " fill-opacity="1" fill-rule="nonzero"/></g></g></g></g></g></g><g clip-path="url(#56a2b9e26b)"><g clip-path="url(#514c7476a3)"><g clip-path="url(#1d1e0eebd3)"><g transform="matrix(1, 0, 0, 1, 492, 71)"><g clip-path="url(#edca63d86f)"><g clip-path="url(#271961da8d)"><g clip-path="url(#d5c86332dc)"><g clip-path="url(#0135a33328)"><path fill="#ffffff" d="M -59.148438 67.546875 L 59.078125 -60.972656 L 126.5 1.046875 L 8.273438 129.566406 Z M -59.148438 67.546875 " fill-opacity="1" fill-rule="nonzero"/></g></g></g></g></g></g></g></g><g clip-path="url(#b255ebdfb6)"><g clip-path="url(#0799660651)"><g clip-path="url(#e662350bdd)"><g transform="matrix(1, 0, 0, 1, 439, 771)"><g clip-path="url(#b68c50e2b5)"><g clip-path="url(#3389155549)"><g clip-path="url(#4eb24104ab)"><g clip-path="url(#982fc67be0)"><path fill="#ffffff" d="M 188.5625 65.253906 L 65.082031 188.734375 L 0.304688 123.957031 L 123.785156 0.476562 Z M 188.5625 65.253906 " fill-opacity="1" fill-rule="nonzero"/></g></g></g></g></g></g></g></g><g clip-path="url(#4f3a140a2b)"><g clip-path="url(#724c536f06)"><g clip-path="url(#056339f5b1)"><g transform="matrix(1, 0, 0, 1, 168, 488)"><g clip-path="url(#2073cf1e95)"><g clip-path="url(#99ff0a1716)"><g clip-path="url(#235ef8f455)"><g clip-path="url(#f10a17e996)"><path fill="#000000" d="M 118.804688 -105.078125 L 317.734375 106.441406 L 199.761719 217.394531 L 0.832031 5.871094 Z M 118.804688 -105.078125 " fill-opacity="1" fill-rule="nonzero"/></g></g></g></g></g></g></g></g><g clip-path="url(#fab13c8eff)"><g clip-path="url(#6deb99f9f7)"><g clip-path="url(#052203cdde)"><g transform="matrix(1, 0, 0, 1, 197, 521)"><g clip-path="url(#546883371b)"><g clip-path="url(#39d946d5d4)"><g clip-path="url(#0e118d3333)"><g clip-path="url(#7d4d394e8a)"><path fill="#ffffff" d="M 82.5 -72.675781 L 220.21875 73.753906 L 138.546875 150.5625 L 0.828125 4.132812 Z M 82.5 -72.675781 " fill-opacity="1" fill-rule="nonzero"/></g></g></g></g></g></g></g></g><g clip-path="url(#205e3e20c0)"><g clip-path="url(#2d4dcfbcce)"><g clip-path="url(#dbc53d7afa)"><g transform="matrix(1, 0, 0, 1, 681, 260)"><g clip-path="url(#e82555eb36)"><g clip-path="url(#eecaadffb9)"><g clip-path="url(#966eea26ee)"><g clip-path="url(#b1dc8e2687)"><path fill="#000000" d="M 103.246094 320.058594 L -103.074219 115.734375 L 10.882812 0.664062 L 217.203125 204.984375 Z M 103.246094 320.058594 " fill-opacity="1" fill-rule="nonzero"/></g></g></g></g></g></g></g></g><g clip-path="url(#ddb46309ec)"><g clip-path="url(#8581faa5e6)"><g clip-path="url(#3625744a41)"><g transform="matrix(1, 0, 0, 1, 717, 293)"><g clip-path="url(#a65f3b667a)"><g clip-path="url(#b90ce4f368)"><g clip-path="url(#409b374ada)"><g clip-path="url(#4956fafdba)"><path fill="#ffffff" d="M 72.214844 221.433594 L -70.613281 79.984375 L 8.277344 0.324219 L 151.105469 141.769531 Z M 72.214844 221.433594 " fill-opacity="1" fill-rule="nonzero"/></g></g></g></g></g></g></g></g><g clip-path="url(#3bfd4f3dcc)"><g clip-path="url(#08ad97a2fc)"><g transform="matrix(1, 0, 0, 1, 613, 506)"><g clip-path="url(#0d31347352)"><g clip-path="url(#d7d7c6ac62)"><g clip-path="url(#88a5027653)"><path fill="#000000" d="M 0.632812 0.578125 L 289.144531 0.578125 L 289.144531 289.089844 L 0.632812 289.089844 Z M 0.632812 0.578125 " fill-opacity="1" fill-rule="nonzero"/></g></g></g></g></g></g><g clip-path="url(#19f2ddb177)"><g clip-path="url(#d3aff2b6c0)"><g transform="matrix(1, 0, 0, 1, 162, 170)"><g clip-path="url(#2d5e38849c)"><g clip-path="url(#969992d2c5)"><g clip-path="url(#495f65d9e5)"><path fill="#000000" d="M 0.0664062 0.441406 L 288.578125 0.441406 L 288.578125 288.949219 L 0.0664062 288.949219 Z M 0.0664062 0.441406 " fill-opacity="1" fill-rule="nonzero"/></g></g></g></g></g></g><g clip-path="url(#d853858cba)"><g clip-path="url(#e38e924b29)"><g clip-path="url(#81e3e2f003)"><g clip-path="url(#fae629689e)"><path fill="#ffffff" d="M 409.207031 294.507812 C 418.550781 342.375 393.386719 391.722656 346.722656 411.042969 C 293.449219 433.097656 232.324219 407.65625 210.199219 354.21875 C 188.074219 300.777344 213.328125 239.574219 266.601562 217.519531 C 313.265625 198.199219 365.945312 215.320312 393.175781 255.777344 L 450.367188 254.785156 Z M 409.207031 294.507812 " fill-opacity="1" fill-rule="nonzero"/></g></g></g></g><g clip-path="url(#d80c76b138)"><g clip-path="url(#e319c1dd5b)"><g clip-path="url(#94e45d7826)"><g clip-path="url(#82078f88d3)"><path fill="#000000" d="M 452.683594 253.824219 L 410.207031 294.824219 C 414.65625 318.238281 410.964844 342.75 399.78125 363.914062 C 388.371094 385.503906 369.652344 402.546875 347.074219 411.894531 C 293.417969 434.109375 231.636719 408.394531 209.351562 354.570312 C 187.066406 300.742188 212.589844 238.882812 266.25 216.667969 C 288.828125 207.320312 314.113281 206.144531 337.445312 213.347656 C 360.316406 220.414062 380.253906 235.144531 393.65625 254.847656 Z M 211.046875 353.867188 C 232.941406 406.75 293.652344 432.019531 346.371094 410.191406 C 391.664062 391.441406 417.710938 342.859375 408.308594 294.683594 L 408.210938 294.191406 L 448.042969 255.746094 L 392.691406 256.710938 L 392.414062 256.292969 C 365.011719 215.566406 312.246094 199.617188 266.953125 218.367188 C 214.234375 240.195312 189.152344 300.976562 211.046875 353.867188 Z M 211.046875 353.867188 " fill-opacity="1" fill-rule="nonzero"/></g></g></g></g><g clip-path="url(#73889473df)"><g clip-path="url(#2c6004ebd5)"><g clip-path="url(#3828b2cf2e)"><g clip-path="url(#6c0b6aed26)"><path fill="#ffffff" d="M 655.832031 676.695312 C 644.597656 629.238281 667.78125 578.929688 713.644531 557.777344 C 766.003906 533.625 828.089844 556.621094 852.316406 609.140625 C 876.542969 661.660156 853.738281 723.820312 801.378906 747.972656 C 755.515625 769.125 702.199219 754.109375 673.386719 714.757812 L 616.28125 718.019531 Z M 655.832031 676.695312 " fill-opacity="1" fill-rule="nonzero"/></g></g></g></g><g clip-path="url(#43eff46b42)"><g clip-path="url(#37dacb69dd)"><g clip-path="url(#58b0bec287)"><g clip-path="url(#9d1a46fcfc)"><path fill="#000000" d="M 614.003906 719.070312 L 654.820312 676.417969 C 649.445312 653.199219 652.164062 628.5625 662.496094 606.972656 C 673.042969 584.945312 691.070312 567.175781 713.257812 556.941406 C 765.996094 532.613281 828.746094 555.859375 853.148438 608.757812 C 877.550781 661.65625 854.5 724.480469 801.765625 748.808594 C 779.574219 759.042969 754.355469 761.21875 730.757812 754.945312 C 707.625 748.792969 687.117188 734.867188 672.945312 715.707031 Z M 851.480469 609.527344 C 827.507812 557.554688 765.84375 534.710938 714.03125 558.613281 C 669.519531 579.144531 645.417969 628.71875 656.722656 676.488281 L 656.839844 676.972656 L 618.5625 716.96875 L 673.832031 713.8125 L 674.128906 714.214844 C 703.125 753.824219 756.480469 767.667969 800.992188 747.136719 C 852.804688 723.234375 875.460938 661.507812 851.480469 609.527344 Z M 851.480469 609.527344 " fill-opacity="1" fill-rule="nonzero"/></g></g></g></g></g></g></svg>